<?xml version="1.0" standalone="yes"?>
<svg xmlns="http://www.w3.org/2000/svg" width="133" height="133">
<path style="fill:#261313; stroke:none;" d="M0 0L0 133L2 133L2 0L0 0z"/>
<path style="fill:#da9e78; stroke:none;" d="M2 0L2 23L3 23L2 0z"/>
<path style="fill:#994f4a; stroke:none;" d="M3 0L4 1L3 0z"/>
<path style="fill:#261313; stroke:none;" d="M4 0L4 86C4 96.844 0.758737 113.867 4.74228 123.985C9.38911 135.787 24.732 130.17 32 125L27 133L106 133L106 132L100 125L112.039 132.231L129 133L129 40C129 30.7904 132.412 12.7991 126.297 5.22839C120.474 -1.9805 109.647 3.2739 103 6L107 0L16 0L16 1L33 14C22.588 9.04685 16.2843 0.0352325 4 0z"/>
<path style="fill:#994f4a; stroke:none;" d="M12 0L13 1L12 0z"/>
<path style="fill:#da9e78; stroke:none;" d="M13 0L13 1L28 10L13 0z"/>
<path style="fill:#994f4a; stroke:none;" d="M15 0L16 1L15 0M103 6L111 1L117 2C111.118 -1.12712 106.198 0.20816 103 6z"/>
<path style="fill:#da9e78; stroke:none;" d="M113 0L113 1L118 1L113 0z"/>
<path style="fill:#fce0b1; stroke:none;" d="M118 0L118 1L121 1L118 0z"/>
<path style="fill:#da9e78; stroke:none;" d="M121 0L121 1L124 2L121 0z"/>
<path style="fill:#994f4a; stroke:none;" d="M123 0L123 3L128 10L129 10L128 6C130.923 4.30157 130.355 0.660645 127 0L129 5L123 0z"/>
<path style="fill:#261313; stroke:none;" d="M125 0L129 5L125 0z"/>
<path style="fill:#da9e78; stroke:none;" d="M130 0L128 6L130 22L131 22L130 0z"/>
<path style="fill:#261313; stroke:none;" d="M131 0L131 133L133 133L133 0L131 0z"/>
<path style="fill:#994f4a; stroke:none;" d="M14 1L15 2L14 1M16 1L17 2L16 1z"/>
<path style="fill:#da9e78; stroke:none;" d="M111.667 1.33333L112.333 1.66667L111.667 1.33333z"/>
<path style="fill:#994f4a; stroke:none;" d="M118 1L118 2L123 2L118 1M3 2L2 58L3 58L4 19L3 2M15 2L16 3L15 2M18 2L19 3L18 2z"/>
<path style="fill:#df5569; stroke:none;" d="M17 3L18 4L17 3z"/>
<path style="fill:#994f4a; stroke:none;" d="M19 3L20 4L19 3M18 4L19 5L18 4M21 4L22 5L21 4z"/>
<path style="fill:#df5569; stroke:none;" d="M20 5L21 6L20 5z"/>
<path style="fill:#994f4a; stroke:none;" d="M22 5L23 6L22 5M34 52L35 52C35.4501 38.1309 55.6618 19.5254 68 15L66 10L73 16C70.784 11.3667 68.044 9.42427 63 11C66.1487 8.77637 67.4173 8.55978 71 10C65.0785 2.62799 60.8858 10.2757 55.9954 15.0394C47.8965 22.9282 30.8613 39.4064 34 52z"/>
<path style="fill:#da9e78; stroke:none;" d="M66 5L67 6L66 5z"/>
<path style="fill:#994f4a; stroke:none;" d="M21 6L22 7L21 6M24 6L25 7L24 6z"/>
<path style="fill:#da9e78; stroke:none;" d="M65 6L63 9L65 6z"/>
<path style="fill:#994f4a; stroke:none;" d="M102 6L103 7L102 6z"/>
<path style="fill:#df5569; stroke:none;" d="M23 7L24 8L23 7z"/>
<path style="fill:#994f4a; stroke:none;" d="M26 7L27 8L26 7M24 8L25 9L24 8M27 8L29 10L29 8L27 8M25 9L26 10L25 9z"/>
<path style="fill:#da9e78; stroke:none;" d="M29 9L31 13L32 12L29 9z"/>
<path style="fill:#994f4a; stroke:none;" d="M30 9L31 10L30 9M112.333 9.66666L112.667 10.3333L112.333 9.66666M26 10L27 11L26 10z"/>
<path style="fill:#df5569; stroke:none;" d="M27 10L29 12L29 10L27 10z"/>
<path style="fill:#994f4a; stroke:none;" d="M31 10L32 11L31 10z"/>
<path style="fill:#da9e78; stroke:none;" d="M61 10L62 11L61 10z"/>
<path style="fill:#261313; stroke:none;" d="M63 10L64 11L63 10z"/>
<path style="fill:#da9e78; stroke:none;" d="M64 10L65 11L64 10z"/>
<path style="fill:#fce0b1; stroke:none;" d="M30 11L31 12L30 11z"/>
<path style="fill:#994f4a; stroke:none;" d="M13 12L13 21L14 21L14 19L15 19L15 22L16 22L13 12M29 12L30 13L29 12z"/>
<path style="fill:#fce0b1; stroke:none;" d="M31 12L32 13L31 12z"/>
<path style="fill:#994f4a; stroke:none;" d="M32 12L31 14L32 12z"/>
<path style="fill:#261313; stroke:none;" d="M61 12L59 15L61 12M64 12L64 14L66 12L64 12z"/>
<path style="fill:#da9e78; stroke:none;" d="M32 13L33 14L32 13M66 13L67 14L66 13z"/>
<path style="fill:#994f4a; stroke:none;" d="M47 15L49 17L49 15L47 15M22 16L23 17L22 16M74 16L74 17L77 18L74 16M129 16L129 133L131 133L131 53C131 41.8401 133.644 26.3445 129 16M116 17L116 19L118 19L118 17L116 17z"/>
<path style="fill:#df5569; stroke:none;" d="M14 19L15 20L14 19z"/>
<path style="fill:#261313; stroke:none;" d="M54 19L55 20L54 19z"/>
<path style="fill:#da9e78; stroke:none;" d="M57 19L56 21L57 19M14 20L16 32L17 32L14 20z"/>
<path style="fill:#994f4a; stroke:none;" d="M14 24L14 27L15 27L14 24M16 25L16 28L17 28L16 25M84.3333 25.6667L84.6667 26.3333L84.3333 25.6667M114.667 26.3333L115.333 26.6667L114.667 26.3333M86 27L87 28L86 27M112 27L113 28L112 27z"/>
<path style="fill:#da9e78; stroke:none;" d="M112 30L118 34C119.786 29.2416 115.379 25.3844 112 30z"/>
<path style="fill:#df5569; stroke:none;" d="M112 28L113 29L112 28z"/>
<path style="fill:#994f4a; stroke:none;" d="M111 29L111 31L113 31L111 29z"/>
<path style="fill:#fce0b1; stroke:none;" d="M117 29L118 30L117 29z"/>
<path style="fill:#994f4a; stroke:none;" d="M15 30L14 32L16 32L15 30M87 30L97 44L99.6767 78.0008L81 111L80 111L79 108L66 122L65 122L62 116L63 118L62 118L59 114L55 116L67 128L63 122L66 124L69 118L68 124L69 124L83 108C90.2264 106.74 95.9264 96.3145 98.7639 90C106.958 71.7651 108.083 40.486 87 30M114 30L115 31L114 30M119 30L120 31L119 30M11 31L12 32L11 31z"/>
<path style="fill:#da9e78; stroke:none;" d="M10 34L16 37L17 34L14 31L10 34z"/>
<path style="fill:#df5569; stroke:none;" d="M116 31L117 32L116 31M119 31L117 33L116 42C119.41 38.9904 120.806 35.3466 119 31M10 32L11 33L10 32z"/>
<path style="fill:#fce0b1; stroke:none;" d="M12.6667 32.3333L13.3333 32.6667L12.6667 32.3333z"/>
<path style="fill:#df5569; stroke:none;" d="M15 32L15 34L17 34L17 32L15 32z"/>
<path style="fill:#994f4a; stroke:none;" d="M17 32L17 35L18 35L17 32M116 32L117 33L116 32M120 32L120 37L121 37L120 32M9 33C7.74304 38.6403 11.129 40.1938 16 38L9 33z"/>
<path style="fill:#df5569; stroke:none;" d="M14 34L15 35L14 34z"/>
<path style="fill:#994f4a; stroke:none;" d="M117 34L118 35L117 34M123 34L123 36L125 36L125 34L123 34z"/>
<path style="fill:#261313; stroke:none;" d="M11 35L14 37L14 36L11 35z"/>
<path style="fill:#994f4a; stroke:none;" d="M16 36L17 37L16 36z"/>
<path style="fill:#df5569; stroke:none;" d="M14 37L15 38L14 37z"/>
<path style="fill:#994f4a; stroke:none;" d="M117.333 37.6667L117.667 38.3333L117.333 37.6667z"/>
<path style="fill:#da9e78; stroke:none;" d="M94 38L95 39L94 38z"/>
<path style="fill:#994f4a; stroke:none;" d="M119 38L120 39L119 38z"/>
<path style="fill:#da9e78; stroke:none;" d="M130.333 39.6667L130.667 40.3333L130.333 39.6667z"/>
<path style="fill:#994f4a; stroke:none;" d="M116 40L117 41L116 40M118 40L119 41L118 40z"/>
<path style="fill:#da9e78; stroke:none;" d="M96 41L97 42L96 41z"/>
<path style="fill:#994f4a; stroke:none;" d="M117 41L118 42L117 41M65 42L62 48L61 44L60 44L59 50L48 58L48 63L44 62L48 68L44 69L44 70L48 70L45 75L49 76L46 81L51 79L50 82L53 81L53 86L56 88L62 88L62 93L63 93L64 90L65 90L66 93L67 93L72 87L73 92L75 92L75 85L78 87L80 83L81 83L84 86L73 76L75 83L74 87L73 87L71 81L70 81L68 88L67 88L67 85L64 88L63 88C62.095 84.8278 61.1769 83.8791 58 85L59 81L57 78L53 80L54 76L50 78C51.2154 75.2771 52.3353 73.7334 49 73L49 72L51 71L51 67L49 66L49 65L53 63L51 59L55 59L53 55L60 49L66 51L67 51L69 49L69 53L74 55L78 54L77 59L81 58L82 63L86 63L86 64L81 66L81 67C83.178 67.5827 86.1201 68.5007 83 70L85 73L77 71L77 72L82 74C81.0422 77.0472 80.3225 78.9526 83 81L86 79L84 74L88 76L86 70L90 70L90 69L86 67L89 61L85 62L86 59L84 59L85 56L81 55L83 49L79 52C77.6466 48.1117 74.8814 47.4351 71 48L71 43L70 43L66 47L65 42M115.667 42.3333L116.333 42.6667L115.667 42.3333z"/>
<path style="fill:#da9e78; stroke:none;" d="M97 43L98 44L97 43M96 44L97 45L96 44z"/>
<path style="fill:#df5569; stroke:none;" d="M69.3333 47.6667L69.6667 48.3333L69.3333 47.6667z"/>
<path style="fill:#da9e78; stroke:none;" d="M99 48L100 51L101 51L99 48z"/>
<path style="fill:#df5569; stroke:none;" d="M60 49L53 55L55 59L51 59L58 62L56 58L60 60L59 57L61 54L62 54L62 56L63 56L63 52L64 52L66 58L67 58L69 49L67 51L60 49z"/>
<path style="fill:#da9e78; stroke:none;" d="M68 51L67 58L64 52L63 52L63 56L62 56L62 54L61 54L60 60L57 58L56 58L57 63L62 57L65 56L66 59L68 59L68 51z"/>
<path style="fill:#994f4a; stroke:none;" d="M32 52L30 76C32.866 73.4561 34.2392 55.3359 32 52z"/>
<path style="fill:#df5569; stroke:none;" d="M70 52L69 58L76 57L75 61L78 60L76 64L86 64L86 63L82 63L83 60L81 58L77 59L78 54L74 55L70 52z"/>
<path style="fill:#fce0b1; stroke:none;" d="M67 54L67 57L68 57L67 54z"/>
<path style="fill:#da9e78; stroke:none;" d="M3 56L2 61L3 61L3 56M58 56L59 57L58 56z"/>
<path style="fill:#fce0b1; stroke:none;" d="M64 56L62 57L59 63L55 62L55 63L58 65L55 65L58 70L55 74L59 73L57 76L61 75L61 80L66 78C64.4009 74.6731 60.1531 73.0166 59.3889 69C58.3861 63.7295 65.5102 59.2517 69.9167 61.9167C74.6109 64.7557 72.2626 71.9848 77 73L75 70L80 71L80 70L77 69L78 64L75 64L77 61L69 57L68 57L66 59L64 56z"/>
<path style="fill:#da9e78; stroke:none;" d="M75 57L74 61L75 57z"/>
<path style="fill:#fce0b1; stroke:none;" d="M60 58L61 59L60 58z"/>
<path style="fill:#da9e78; stroke:none;" d="M69 58L69 59L73 59L69 58z"/>
<path style="fill:#994f4a; stroke:none;" d="M3 59L2 113L4 133L4 128L7 128L5 124L4 126L3 126L4 80L3 59z"/>
<path style="fill:#fce0b1; stroke:none;" d="M57 59L58 60L57 59M58 60L59 61L58 60z"/>
<path style="fill:#da9e78; stroke:none;" d="M65.6667 60.3333L66.3333 60.6667L65.6667 60.3333M77.3333 60.6667L77.6667 61.3333L77.3333 60.6667M52 61L52 62L56 62L52 61M63 61L64 62L63 61z"/>
<path style="fill:#994f4a; stroke:none;" d="M73 73L72 71C76.2721 67.8395 72.6555 63.8761 69 62L70 65L65 63L65 62L68 62C57.3298 58.3478 57.7754 81.4004 73 73z"/>
<path style="fill:#da9e78; stroke:none;" d="M65 62L65 63L70 64L70 61L65 62M102.333 61.6667L102.667 62.3333L102.333 61.6667z"/>
<path style="fill:#df5569; stroke:none;" d="M50 63L49 65L51 67L49 72L49 73L52 74L50 78L51 78L53 75L53 80L54 80L57 78L57 82L60 82L58 85L60 83L63 88L64 88L67 79L66 79L65 85L64 85L64 78L63 78L60 82L61 76L56 77L58 75L58 74L53 75L57 72L57 71L52 70L52 69L56 69L52 65L52 64L57 65L50 63z"/>
<path style="fill:#da9e78; stroke:none;" d="M71 62L72 63L71 62M76 62L77 63L76 62M61 66L65 64L61 66M75 63L76 64L75 63M77 63L78 64L77 63M77 65L78 70L79 70L83 69L83 68L78 66L78 65L84 65L77 65z"/>
<path style="fill:#df5569; stroke:none;" d="M48 64L49 65L48 64z"/>
<path style="fill:#da9e78; stroke:none;" d="M52 64L55 66L52 64M57 64L58 65L57 64z"/>
<path style="fill:#df5569; stroke:none;" d="M69 64L70 65L69 64z"/>
<path style="fill:#da9e78; stroke:none;" d="M76 64L77 65L76 64M56 65L57 66L56 65z"/>
<path style="fill:#df5569; stroke:none;" d="M78 65L78 66L83 66L78 65z"/>
<path style="fill:#da9e78; stroke:none;" d="M55 66L56 67L55 66M59 66L60 67L59 66M66 66L70 69L69 66L66 66M56.3333 67.6667L56.6667 68.3333L56.3333 67.6667M58.3333 67.6667L58.6667 68.3333L58.3333 67.6667M60 67L61 68L60 67z"/>
<path style="fill:#261313; stroke:none;" d="M62 67L63 68L62 67z"/>
<path style="fill:#da9e78; stroke:none;" d="M72.3333 67.6667L72.6667 68.3333L72.3333 67.6667z"/>
<path style="fill:#261313; stroke:none;" d="M73.3333 67.6667L73.6667 68.3333L73.3333 67.6667z"/>
<path style="fill:#df5569; stroke:none;" d="M81 67L81 68L83 69L82 70L78 68L78 69L81 73L85 73L83 70L86 69L81 67z"/>
<path style="fill:#da9e78; stroke:none;" d="M129 67L129 72L130 72L129 67M52 69L52 70L58 71L52 69M59 69L60 70L59 69z"/>
<path style="fill:#994f4a; stroke:none;" d="M81 69L82 70L81 69z"/>
<path style="fill:#261313; stroke:none;" d="M64 70L64 72L66 72L66 70L64 70z"/>
<path style="fill:#da9e78; stroke:none;" d="M66.6667 70.3333L67.3333 70.6667L66.6667 70.3333M71 70L72 71L71 70M75 70L76 71L75 70z"/>
<path style="fill:#df5569; stroke:none;" d="M76.3333 70.6667L76.6667 71.3333L76.3333 70.6667z"/>
<path style="fill:#da9e78; stroke:none;" d="M77 70L78 71L77 70M80 70L80 72L82 72L80 70M60 71L61 72L60 71z"/>
<path style="fill:#261313; stroke:none;" d="M72 71L73 72L72 71z"/>
<path style="fill:#da9e78; stroke:none;" d="M73 71L73 75L70 74L71 77L81 81L73 71z"/>
<path style="fill:#df5569; stroke:none;" d="M79 71L80 72L79 71z"/>
<path style="fill:#da9e78; stroke:none;" d="M55 72L56 73L55 72M77 72L80 75L77 72z"/>
<path style="fill:#df5569; stroke:none;" d="M78 72L79 73L78 72z"/>
<path style="fill:#da9e78; stroke:none;" d="M54 73L53 75L55 75L54 73M56 73L56 74L59 74L56 73M61 73L62 74L61 73M64 73L65 74L64 73z"/>
<path style="fill:#fce0b1; stroke:none;" d="M72 73L71 75L73 75L72 73z"/>
<path style="fill:#df5569; stroke:none;" d="M74 73L80 79L81 73L74 73z"/>
<path style="fill:#da9e78; stroke:none;" d="M62 74L63 75L62 74M52 75L53 76L52 75M56 75L56 77L58 77L56 75M59.6667 75.3333L60.3333 75.6667L59.6667 75.3333M64.6667 75.3333L65.3333 75.6667L64.6667 75.3333M68 75L64 78L64 85L65 85L66 79L67 79L67 86L68 86L71 79L71 78L68 75z"/>
<path style="fill:#fce0b1; stroke:none;" d="M68 76L71 80L72 80L71 75L68 76z"/>
<path style="fill:#df5569; stroke:none;" d="M72 76L72 81L73 81L72 76M74 76L75 77L74 76z"/>
<path style="fill:#994f4a; stroke:none;" d="M31 77L32 82L33 82L31 77z"/>
<path style="fill:#da9e78; stroke:none;" d="M55 77L56 78L55 77z"/>
<path style="fill:#fce0b1; stroke:none;" d="M67 77L68 78L67 77z"/>
<path style="fill:#df5569; stroke:none;" d="M75 77L76 78L75 77z"/>
<path style="fill:#da9e78; stroke:none;" d="M54 78L55 79L54 78z"/>
<path style="fill:#df5569; stroke:none;" d="M69 78L69 83L70 83L69 78z"/>
<path style="fill:#da9e78; stroke:none;" d="M101 78L102 79L101 78M60 79L62 82L60 79M62 79L63 80L62 79z"/>
<path style="fill:#df5569; stroke:none;" d="M78 79L79 80L78 79M80 79L81 80L80 79z"/>
<path style="fill:#da9e78; stroke:none;" d="M71 80L72 84L73 84L71 80z"/>
<path style="fill:#261313; stroke:none;" d="M73 80L74 81L73 80z"/>
<path style="fill:#df5569; stroke:none;" d="M79 80L80 81L79 80M80.6667 81.3333L81.3333 81.6667L80.6667 81.3333z"/>
<path style="fill:#da9e78; stroke:none;" d="M59 82L60 83L59 82z"/>
<path style="fill:#df5569; stroke:none;" d="M71 82L72 83L71 82z"/>
<path style="fill:#994f4a; stroke:none;" d="M33 83C34.7433 94.5881 45.7514 110.1 57 114L43.5139 99L33 83z"/>
<path style="fill:#df5569; stroke:none;" d="M73 83L73 87L74 87L73 83z"/>
<path style="fill:#261313; stroke:none;" d="M74 83L75 84L74 83z"/>
<path style="fill:#df5569; stroke:none;" d="M68.3333 84.6667L68.6667 85.3333L68.3333 84.6667M67.3333 86.6667L67.6667 87.3333L67.3333 86.6667z"/>
<path style="fill:#261313; stroke:none;" d="M65 87L66 88L65 87z"/>
<path style="fill:#994f4a; stroke:none;" d="M16 90L14 93L16 90z"/>
<path style="fill:#df5569; stroke:none;" d="M15 92L13 103L17 102L15 92z"/>
<path style="fill:#994f4a; stroke:none;" d="M13 94L14 95L13 94M15 94L15 99L16 99L15 94M120 94L116 98L120 96L117 101C120.755 99.6154 122.334 97.6168 120 94z"/>
<path style="fill:#da9e78; stroke:none;" d="M121 94C121.124 97.7587 120.251 99.1376 117 101L119 96C112.679 101.726 117.591 115.437 119 123L120 123C119.984 117.324 115.713 106.441 121 103L121 102L119 102L119 101L123 102C123.821 98.5392 124.102 96.0762 121 94z"/>
<path style="fill:#994f4a; stroke:none;" d="M123 94L124 95L123 94M124 95L124 100L125 100L124 95M12 96L12 101L13 101L12 96z"/>
<path style="fill:#df5569; stroke:none;" d="M119 96L120 97L119 96z"/>
<path style="fill:#261313; stroke:none;" d="M89 99L90 100L89 99z"/>
<path style="fill:#994f4a; stroke:none;" d="M115 99L116 100L115 99M16 100L17 101L16 100M17 101L19 103L17 101M115.333 101.667L115.667 102.333L115.333 101.667z"/>
<path style="fill:#fce0b1; stroke:none;" d="M119 101L119 102L122 102L119 101z"/>
<path style="fill:#994f4a; stroke:none;" d="M123 101L124 102L123 101z"/>
<path style="fill:#da9e78; stroke:none;" d="M14 102C15.8945 105.233 17.5327 105.017 21 104L21 103L18 104L14 102z"/>
<path style="fill:#994f4a; stroke:none;" d="M21 102L21 103L25 103L21 102M121 102L122 103L121 102M13 103L14 104L13 103z"/>
<path style="fill:#fce0b1; stroke:none;" d="M18 103L19 104L18 103M17 105L17 106L23 104L17 105z"/>
<path style="fill:#df5569; stroke:none;" d="M23 103L24 104L23 103z"/>
<path style="fill:#da9e78; stroke:none;" d="M45 103L46 104L45 103z"/>
<path style="fill:#994f4a; stroke:none;" d="M14 104L15 105L14 104z"/>
<path style="fill:#da9e78; stroke:none;" d="M22 104L23 105L22 104z"/>
<path style="fill:#994f4a; stroke:none;" d="M15 105L16 106L15 105z"/>
<path style="fill:#da9e78; stroke:none;" d="M20.6667 105.333L21.3333 105.667L20.6667 105.333z"/>
<path style="fill:#994f4a; stroke:none;" d="M120 105L121 106L120 105M17 106L18 107L17 106z"/>
<path style="fill:#df5569; stroke:none;" d="M18 106L19 107L18 106z"/>
<path style="fill:#994f4a; stroke:none;" d="M19.6667 106.333L20.3333 106.667L19.6667 106.333z"/>
<path style="fill:#261313; stroke:none;" d="M84 106L85 107L84 106z"/>
<path style="fill:#994f4a; stroke:none;" d="M118 106L118 110L119 110L118 106M116.333 107.667L116.667 108.333L116.333 107.667z"/>
<path style="fill:#da9e78; stroke:none;" d="M83 108L84 109L83 108z"/>
<path style="fill:#994f4a; stroke:none;" d="M119 112L119 115L120 115L119 112z"/>
<path style="fill:#261313; stroke:none;" d="M77 113L71 119L78 114L77 113z"/>
<path style="fill:#994f4a; stroke:none;" d="M117 113L117 116L118 116L117 113M121 113L122 114L121 113M29 114L31 116L31 114L29 114M120 115L121 116L120 115z"/>
<path style="fill:#261313; stroke:none;" d="M57 117L63 122L57 117z"/>
<path style="fill:#994f4a; stroke:none;" d="M120 118L119 128L121 128L120 118M118.333 120.667L118.667 121.333L118.333 120.667z"/>
<path style="fill:#da9e78; stroke:none;" d="M3 123L3 126L4 126L3 123z"/>
<path style="fill:#994f4a; stroke:none;" d="M31 125L25 131L21 130L21 131C22.9601 131.653 23.554 132 21 132L21 133L30 130L31 125M100 125L100 126L103 126L103 125L100 125z"/>
<path style="fill:#df5569; stroke:none;" d="M101 125L102 126L101 125z"/>
<path style="fill:#da9e78; stroke:none;" d="M102 126L102 127L107 130L102 126z"/>
<path style="fill:#994f4a; stroke:none;" d="M104 126L105 127L104 126z"/>
<path style="fill:#da9e78; stroke:none;" d="M5 127L6 128L5 127z"/>
<path style="fill:#df5569; stroke:none;" d="M102 127L106 131L102 127z"/>
<path style="fill:#fce0b1; stroke:none;" d="M103 127L104 128L103 127z"/>
<path style="fill:#994f4a; stroke:none;" d="M105 127L106 128L105 127z"/>
<path style="fill:#da9e78; stroke:none;" d="M2 128L3 129L2 128z"/>
<path style="fill:#261313; stroke:none;" d="M4 128L4 133L10 133L10 132L4 128z"/>
<path style="fill:#da9e78; stroke:none;" d="M6 128L6 130L8 128L6 128z"/>
<path style="fill:#994f4a; stroke:none;" d="M102 128L103 129L102 128M106 128L107 129L106 128z"/>
<path style="fill:#fce0b1; stroke:none;" d="M7 129L7 130L18 133L18 132L7 129z"/>
<path style="fill:#994f4a; stroke:none;" d="M9 129L10 130L9 129z"/>
<path style="fill:#da9e78; stroke:none;" d="M28 129L26 133L28 129z"/>
<path style="fill:#994f4a; stroke:none;" d="M107 129L105 132L108 133L107 129M7 130L8 131L7 130z"/>
<path style="fill:#da9e78; stroke:none;" d="M10 130L11 131L10 130z"/>
<path style="fill:#994f4a; stroke:none;" d="M11 130L12 131L11 130z"/>
<path style="fill:#df5569; stroke:none;" d="M23.6667 130.333L24.3333 130.667L23.6667 130.333z"/>
<path style="fill:#994f4a; stroke:none;" d="M103 130L104 131L103 130M8 131L9 132L8 131z"/>
<path style="fill:#da9e78; stroke:none;" d="M9 131L10 132L9 131M13.6667 131.333L14.3333 131.667L13.6667 131.333z"/>
<path style="fill:#994f4a; stroke:none;" d="M15 131L15 132L19 132L15 131z"/>
<path style="fill:#da9e78; stroke:none;" d="M18 132L18 133L22 132L18 132z"/>
<path style="fill:#df5569; stroke:none;" d="M22 131L23 132L22 131M108.333 131.667L108.667 132.333L108.333 131.667z"/>
<path style="fill:#da9e78; stroke:none;" d="M109 131L109 133L111 133L109 131z"/>
<path style="fill:#994f4a; stroke:none;" d="M110 131L111 132L110 131z"/>
<path style="fill:#da9e78; stroke:none;" d="M2 132L3 133L2 132z"/>
<path style="fill:#994f4a; stroke:none;" d="M10 132L11 133L10 132z"/>
<path style="fill:#da9e78; stroke:none;" d="M11 132L12 133L11 132z"/>
<path style="fill:#df5569; stroke:none;" d="M20 132L21 133L20 132M24.6667 132.333L25.3333 132.667L24.6667 132.333z"/>
<path style="fill:#994f4a; stroke:none;" d="M111 132L112 133L111 132z"/>
</svg>
